<svg width="1080" height="1080" viewBox="0 0 1080 1080" fill="none" xmlns="http://www.w3.org/2000/svg">
<path d="M288 452C280 456 264.8 472.4 268 506C268.667 541.333 285.6 614 348 622C410.4 630 402 693.333 390 724C490.667 758 694 825.2 702 822C710 818.8 757.333 735.333 780 694L792 644C802 622 816 568.8 792 532C808.667 508.667 829.6 456 780 432C784.667 382 780.4 278.4 726 264C671.6 249.6 526 216.667 460 202L378 308L336 394L288 432V452Z" fill="#D9D9D9" stroke="#101010" stroke-width="15"/>
<path d="M508 584C397.6 569.6 386 490 394 452C394 358 508 356 484 356C464.8 356 449.333 321.333 444 304C438.667 333.333 431.2 372 444 292C456.8 212 646.667 246.667 740 274C752.8 230.8 672 189.333 630 174H572C480 150 484 180 444 174C412 169.2 397.333 196 394 210C333.2 203.6 298 294 288 340C273.732 384.231 279.61 425.387 285.777 445.598C290.114 443.65 297.169 441.159 308 438C356 424 370 490 372 520C374 550 354 638 336 670C321.6 695.6 342 743.333 354 764C392 776 471.2 806.8 484 834C500 868 688 956 724 914C760 872 760 822 760 790C760 768.136 777.506 701.925 790.091 658.146C783.522 679.367 776 699.622 776 684C776 663.2 765.333 630 760 616C652 582 704 600 612 584C538.4 571.2 542.667 636 554 670H534C510 670 506.667 612.667 508 584Z" fill="#101010"/>
<path d="M285.777 445.598C279.61 425.387 273.732 384.231 288 340C298 294 333.2 203.6 394 210C397.333 196 412 169.2 444 174C484 180 480 150 572 174H630C672 189.333 752.8 230.8 740 274C646.667 246.667 456.8 212 444 292C431.2 372 438.667 333.333 444 304C449.333 321.333 464.8 356 484 356C508 356 394 358 394 452C386 490 397.6 569.6 508 584C506.667 612.667 510 670 534 670H554C542.667 636 538.4 571.2 612 584C704 600 652 582 760 616C765.333 630 776 663.2 776 684C776 699.622 783.522 679.367 790.091 658.146M285.777 445.598C290.114 443.65 297.169 441.159 308 438C356 424 370 490 372 520C374 550 354 638 336 670C321.6 695.6 342 743.333 354 764C392 776 471.2 806.8 484 834C500 868 688 956 724 914C760 872 760 822 760 790C760 768.136 777.506 701.925 790.091 658.146M285.777 445.598C286.525 448.051 287.278 450.196 288 452C281.299 452 274.736 450.557 285.777 445.598ZM790.091 658.146C792.242 650.665 794.249 643.838 796 638C794.34 643.974 792.268 651.113 790.091 658.146Z" stroke="#101010" stroke-width="5"/>
<path d="M572 648C570.667 634.667 585.6 610.8 656 622C726.4 633.2 749.333 654.667 752 664C762 674.667 772.4 701.2 734 722C686 748 572 696 572 648Z" fill="#D9D9D9" stroke="#101010" stroke-width="12"/>
<path d="M504 656C508.667 723.667 526 864.2 558 885C598 911 495 863 473 827C481 792 496.2 712 493 672C489.8 632 491.667 631.333 493 636L499 612L504 656Z" fill="#090909"/>
<path d="M673 461L710 557C702 550.667 682.2 539.4 667 545C659.667 539.333 643.4 533.8 637 557C630.6 580.2 643 524.667 650 494L662 461H673Z" fill="#CFCFCF"/>
<path d="M662 581C663.333 576.333 669.8 568.4 685 574L706 581H662Z" fill="#595959"/>
<path d="M724 600L743 587C746.333 589.667 751 596 743 600H724Z" fill="#434141"/>
</svg>
